<svg width="33" height="27" viewBox="0 0 33 27" fill="none" xmlns="http://www.w3.org/2000/svg">
<path d="M31.4994 1.31593C30.1868 2.23949 28.7466 2.94593 27.2153 3.40789C26.3767 2.46118 25.2829 1.78993 24.0797 1.48548C22.8582 1.18085 21.5638 1.25741 20.397 1.70497C19.2303 2.15235 18.2275 2.94903 17.5165 3.98726C16.8055 5.02549 16.4409 6.25515 16.4592 7.50978V8.87707C14.0527 8.93942 11.6827 8.40654 9.53147 7.32583C7.38026 6.24512 5.53906 4.6503 4.15353 2.68322C4.15353 2.68322 -1.31564 14.9889 10.99 20.458C8.18249 22.3695 4.82807 23.3279 1.41895 23.1926C13.7246 30.0291 28.7648 23.1926 28.7648 7.46875C28.7648 7.08792 28.7283 6.708 28.6553 6.3339C30.0591 4.95768 31.0436 3.2203 31.4994 1.31593Z" stroke="black" stroke-width="1.82306" stroke-linecap="round" stroke-linejoin="round"/>
</svg>
