<svg width="34" height="34" viewBox="0 0 34 34" fill="none" xmlns="http://www.w3.org/2000/svg">
<path fill-rule="evenodd" clip-rule="evenodd" d="M9.1933 1.90766C5.38311 1.90766 2.30231 4.99757 2.30231 8.80922V24.4356C2.30231 28.247 5.38311 31.3371 9.1933 31.3371H24.8353C28.6455 31.3371 31.7263 28.247 31.7263 24.4356V8.80922C31.7263 4.99757 28.6455 1.90766 24.8353 1.90766H9.1933ZM0.479248 8.80922C0.479248 3.99069 4.38042 0.0846024 9.1933 0.0846024H24.8353C29.6482 0.0846024 33.5493 3.99069 33.5493 8.80922V24.4356C33.5493 29.2539 29.6482 33.1602 24.8353 33.1602H9.1933C4.38042 33.1602 0.479248 29.2539 0.479248 24.4356V8.80922ZM17.8711 11.2733C16.759 11.1085 15.6104 11.2982 14.626 11.8154C13.6233 12.3326 12.8213 13.151 12.3109 14.1541C11.8004 15.1573 11.6363 16.294 11.8186 17.4027C11.9827 18.5114 12.5113 19.5355 13.3134 20.3297C14.0973 21.1238 15.1182 21.6472 16.2303 21.8257C17.3423 22.004 18.4727 21.8282 19.4754 21.3234C20.4781 20.8186 21.2985 20.0103 21.8272 19.0134C22.3377 18.0166 22.52 16.8821 22.356 15.7713C22.1919 14.6383 21.6631 13.5893 20.8609 12.7793C20.0405 11.9693 19.0014 11.4414 17.8711 11.2733ZM13.7874 10.1973C15.1183 9.50344 16.6497 9.24894 18.1263 9.46989C19.6577 9.69541 21.0616 10.4037 22.1372 11.4902C23.231 12.5768 23.942 13.984 24.1608 15.5039C24.3795 16.994 24.1243 18.5159 23.4315 19.8531C22.7387 21.1902 21.645 22.2745 20.2959 22.9518C18.9651 23.629 17.4337 23.8649 15.9388 23.6256C14.4621 23.3862 13.0765 22.684 12.0191 21.6188C10.9435 20.5535 10.2508 19.1797 10.0138 17.6923C9.77681 16.205 10.0138 14.6802 10.6883 13.3346C11.3629 11.989 12.4384 10.8911 13.7874 10.1973ZM25.6008 7.11651C25.1086 7.11651 24.6893 7.52451 24.6893 8.02803C24.6893 8.53138 25.1086 8.93956 25.6008 8.93956H25.6191C26.1295 8.93956 26.5306 8.53138 26.5306 8.02803C26.5306 7.52451 26.1295 7.11651 25.6191 7.11651H25.6008Z" fill="black"/>
</svg>
